<svg width="20" height="20" viewBox="0 0 20 20" fill="none" xmlns="http://www.w3.org/2000/svg">
<path d="M12.9709 8.95115C12.8932 7.26766 13.0756 6.87221 14.5 5.5C15.9244 6.87221 16.1068 7.26766 16.0291 8.95115C15.9515 10.6346 15.9968 13.8945 16.0291 15.1712L17 16.3496V18.0541H16.0291V19.5H14.6052H14.3948H12.9709V18.0541H12V16.3496L12.9709 15.1712C13.0032 13.8945 13.0485 10.6346 12.9709 8.95115Z" fill="white"/>
<path fill-rule="evenodd" clip-rule="evenodd" d="M6.34084 3.32179L6.34091 0.5L6.65909 0.500011L6.65902 3.32179H9.36364V3.69802H8.88636V5.57921H9.36364V5.95545H8.72727V8.7H13V9.11684H8.72727V12.3316H13V12.7484H8.72727V15.96H13V16.3768H8.72727V17.3863L9.46196 19.1238H10V19.5H3V19.1238H3.53804L4.27273 17.3863V5.95545H3.63636V5.57921H4.11364V3.69802H3.63636V3.32179H6.34084ZM4.43182 3.69802V5.57921H5.22727V3.69802H4.43182ZM5.86364 3.69802V5.57921H7.13636V3.69802H5.86364ZM7.77273 3.69802V5.57921H8.56818V3.69802H7.77273ZM7.45455 5.95545H5.54545V6.33169H7.45455V5.95545ZM5.54545 18.7475V19.1238H7.45455V18.7475H5.54545ZM4.27273 18.2276V19.1238H3.89378L4.27273 18.2276ZM5.92953 6.70792H7.45455V8.51119L5.92953 6.70792ZM8.72727 18.2276L9.10622 19.1238H8.72727V18.2276ZM5.54545 18.3713H7.07047L5.54545 16.568V18.3713ZM5.54545 8.58911V6.78585L7.07047 8.58911H5.54545ZM5.54545 8.96535V9.34159H7.45455V8.96535H5.54545ZM5.92953 9.71783H7.45455V11.5211L5.92953 9.71783ZM7.07047 11.599L5.54545 9.79575V11.599H7.07047ZM5.54545 12.3515V11.9753H7.45455V12.3515H5.54545ZM7.45455 12.7277H5.92953L7.45455 14.531V12.7277ZM5.54545 16.1139V14.9852H7.45455V16.1139H5.54545ZM5.54545 12.8056V14.6089H7.07047L5.54545 12.8056ZM5.92953 16.4901L7.45455 18.2934V16.4901H5.92953Z" fill="white" fill-opacity="0.4"/>
</svg>
