<svg width="20" height="20" viewBox="0 0 20 20" fill="none" xmlns="http://www.w3.org/2000/svg">
<path d="M13.2767 12.9512C13.2146 11.2677 13.3605 10.8722 14.5 9.5C15.6395 10.8722 15.7854 11.2677 15.7233 12.9512C15.6612 14.6346 15.6974 14.2234 15.7233 15.5L16.5 16.6784V18.383H15.7233V19.5H14.5841H14.4159H13.2767V18.383H12.5V16.6784L13.2767 15.5C13.3026 14.2234 13.3388 14.6346 13.2767 12.9512Z" fill="white"/>
<path fill-rule="evenodd" clip-rule="evenodd" d="M6.84091 0.5L6.84084 3.32179H4.13636V3.69802H4.61364V5.57921H4.13636V5.95545H4.77273V17.3863L4.03804 19.1238H3.5V19.5H10.5V19.1238H9.96196L9.22727 17.3863V16.4668H13.5V16.05H9.22727V12.9968H13.5V12.58H9.22727V5.95545H9.86364V5.57921H9.38636V3.69802H9.86364V3.32179H7.15902L7.15909 0.500011L6.84091 0.5ZM4.93182 5.57921V3.69802H5.72727V5.57921H4.93182ZM6.36364 5.57921V3.69802H7.63636V5.57921H6.36364ZM8.27273 5.57921V3.69802H9.06818V5.57921H8.27273ZM6.04545 5.95545H7.95455V6.33169H6.04545V5.95545ZM6.04545 19.1238V18.7475H7.95455V19.1238H6.04545ZM4.77273 19.1238V18.2276L4.39378 19.1238H4.77273ZM7.95455 6.70792H6.42953L7.95455 8.51119V6.70792ZM9.60622 19.1238L9.22727 18.2276V19.1238H9.60622ZM7.57047 18.3713H6.04545V16.568L7.57047 18.3713ZM6.04545 6.78585V8.58911H7.57047L6.04545 6.78585ZM6.04545 9.34159V8.96535H7.95455V9.34159H6.04545ZM7.95455 9.71783H6.42953L7.95455 11.5211V9.71783ZM6.04545 9.79575L7.57047 11.599H6.04545V9.79575ZM6.04545 11.9753V12.3515H7.95455V11.9753H6.04545ZM6.42953 12.7277H7.95455V14.531L6.42953 12.7277ZM6.04545 14.9852V16.1139H7.95455V14.9852H6.04545ZM6.04545 14.6089V12.8056L7.57047 14.6089H6.04545ZM7.95455 18.2934L6.42953 16.4901H7.95455V18.2934Z" fill="white" fill-opacity="0.4"/>
</svg>
