<svg width="20" height="20" viewBox="0 0 20 20" fill="none" xmlns="http://www.w3.org/2000/svg">
<path d="M13.5825 13.8008C13.5359 12.6784 13.6454 12.4148 14.5 11.5C15.3546 12.4148 15.4641 12.6784 15.4175 13.8008C15.3709 14.9231 15.3981 15.763 15.4175 16.6141L16 17.3997V18.5361H15.4175V19.5H14.5631H14.4369H13.5825V18.5361H13V17.3997L13.5825 16.6141C13.6019 15.763 13.6291 14.9231 13.5825 13.8008Z" fill="white"/>
<path fill-rule="evenodd" clip-rule="evenodd" d="M7.34084 3.32179L7.34091 0.5L7.65909 0.500011L7.65902 3.32179H10.3636V3.69802H9.88636V5.57921H10.3636V5.95545H9.72727V15.3H14V15.7168H9.72727V17.3863L10.462 19.1238H11V19.5H4V19.1238H4.53804L5.27273 17.3863V5.95545H4.63636V5.57921H5.11364V3.69802H4.63636V3.32179H7.34084ZM5.43182 3.69802V5.57921H6.22727V3.69802H5.43182ZM6.86364 3.69802V5.57921H8.13636V3.69802H6.86364ZM8.77273 3.69802V5.57921H9.56818V3.69802H8.77273ZM8.45455 5.95545H6.54545V6.33169H8.45455V5.95545ZM6.54545 18.7475V19.1238H8.45455V18.7475H6.54545ZM5.27273 18.2276V19.1238H4.89378L5.27273 18.2276ZM6.92953 6.70792H8.45455V8.51119L6.92953 6.70792ZM9.72727 18.2276L10.1062 19.1238H9.72727V18.2276ZM6.54545 18.3713H8.07047L6.54545 16.568V18.3713ZM6.54545 8.58911V6.78585L8.07047 8.58911H6.54545ZM6.54545 8.96535V9.34159H8.45455V8.96535H6.54545ZM6.92953 9.71783H8.45455V11.5211L6.92953 9.71783ZM8.07047 11.599L6.54545 9.79575V11.599H8.07047ZM6.54545 12.3515V11.9753H8.45455V12.3515H6.54545ZM8.45455 12.7277H6.92953L8.45455 14.531V12.7277ZM6.54545 16.1139V14.9852H8.45455V16.1139H6.54545ZM6.54545 12.8056V14.6089H8.07047L6.54545 12.8056ZM6.92953 16.4901L8.45455 18.2934V16.4901H6.92953Z" fill="white" fill-opacity="0.4"/>
</svg>
