<svg width="20" height="20" viewBox="0 0 20 20" fill="none" xmlns="http://www.w3.org/2000/svg">
<path d="M12.4651 6.95115C12.3719 5.26766 12.5907 2.87221 14.3 1.5C16.0093 2.87221 16.2282 5.26766 16.135 6.95115C16.0417 8.63464 16.0961 13.8945 16.135 15.1712L17.3 16.3496V18.0541H16.135V19.5H14.4262H14.1738H12.4651V18.0541H11.3V16.3496L12.4651 15.1712C12.5039 13.8945 12.5583 8.63464 12.4651 6.95115Z" fill="white"/>
<path fill-rule="evenodd" clip-rule="evenodd" d="M5.84091 0.5L5.84084 3.32179H3.13636V3.69802H3.61364V5.57921H3.13636V5.95545H3.77273V17.3863L3.03804 19.1238H2.5V19.5H9.5V19.1238H8.96196L8.82506 18.8H13.5V18.3H8.61363L8.22727 17.3863V14.8H14.5V14.3H8.22727V10.8H13.5V10.3H8.22727V6.8H13.5V6.3H8.22727V5.95545H8.86364V5.57921H8.38636V3.69802H8.86364V3.32179H6.15902L6.15909 0.500011L5.84091 0.5ZM8.2579 18.3L8.22727 18.2276V18.3H8.2579ZM8.22727 18.8V19.1238H8.60622L8.46932 18.8H8.22727ZM3.93182 5.57921V3.69802H4.72727V5.57921H3.93182ZM5.36364 5.57921V3.69802H6.63636V5.57921H5.36364ZM7.27273 5.57921V3.69802H8.06818V5.57921H7.27273ZM5.04545 5.95545H6.95455V6.33169H5.04545V5.95545ZM5.04545 19.1238V18.7475H6.95455V19.1238H5.04545ZM3.77273 19.1238V18.2276L3.39378 19.1238H3.77273ZM6.95455 6.70792H5.42953L6.95455 8.51119V6.70792ZM6.57047 18.3713H5.04545V16.568L6.57047 18.3713ZM5.04545 6.78585V8.58911H6.57047L5.04545 6.78585ZM5.04545 9.34159V8.96535H6.95455V9.34159H5.04545ZM6.95455 9.71783H5.42953L6.95455 11.5211V9.71783ZM5.04545 9.79575L6.57047 11.599H5.04545V9.79575ZM5.04545 11.9753V12.3515H6.95455V11.9753H5.04545ZM5.42953 12.7277H6.95455V14.531L5.42953 12.7277ZM5.04545 14.9852V16.1139H6.95455V14.9852H5.04545ZM5.04545 14.6089V12.8056L6.57047 14.6089H5.04545ZM6.95455 18.2934L5.42953 16.4901H6.95455V18.2934Z" fill="white" fill-opacity="0.4"/>
</svg>
